<?xml version="1.0" encoding="iso-8859-1"?>
<!-- Generator: Adobe Illustrator 21.0.0, SVG Export Plug-In . SVG Version: 6.00 Build 0)  -->
<svg xmlns="http://www.w3.org/2000/svg" xmlns:xlink="http://www.w3.org/1999/xlink" version="1.1" id="Capa_1" x="0px" y="0px" viewBox="0 0 512 512" style="enable-background:new 0 0 512 512;" xml:space="preserve" width="512" height="512">
<g>
	<path style="fill:#3C3A41;" d="M388.617,135.45l-38.28-124.822c-2.722-8.874-12.74-13.185-21.025-9.045l-73.582,36.777   L182.728,1.604c-8.292-4.174-18.34,0.137-21.064,9.025l-38.28,124.822H388.617z"/>
	<path style="fill:#2B292C;" d="M350.337,10.629c-2.722-8.874-12.74-13.185-21.025-9.045L256,38.225v97.225h132.617L350.337,10.629z   "/>
	<path style="fill:#3C3A41;" d="M505.878,364.917l-120-105.346c-2.734-2.4-6.245-3.724-9.878-3.724H136   c-3.633,0-7.143,1.323-9.877,3.724l-120,105.346c-7.176,6.299-6.738,17.635,0.877,23.365l71.878,54.087l-43.484,43.628   c-9.413,9.444-2.748,25.691,10.606,25.691h420c13.311,0,20.05-16.216,10.606-25.691l-43.484-43.628L505,388.282   C512.627,382.543,513.043,371.208,505.878,364.917z"/>
	<path style="fill:#2B292C;" d="M505.878,364.917l-120-105.346c-2.734-2.4-6.245-3.724-9.878-3.724H256v255.841h210   c13.311,0,20.05-16.216,10.606-25.691l-43.484-43.628L505,388.282C512.627,382.542,513.043,371.208,505.878,364.917z"/>
	<path style="fill:#3C3A41;" d="M256,250.83c-82.071,0-130.14-26.522-156.012-48.772c-29.07-24.999-37.858-50.732-38.219-51.815   c-3.232-9.731,3.995-19.809,14.23-19.809h360c10.225,0,17.466,10.066,14.23,19.809c-0.36,1.083-9.148,26.816-38.219,51.815   C386.14,224.308,338.071,250.83,256,250.83z"/>
	<path style="fill:#2B292C;" d="M436,130.434H256V250.83c82.071,0,130.14-26.522,156.012-48.772   c29.07-24.999,37.858-50.732,38.219-51.815C453.466,140.5,446.225,130.434,436,130.434z"/>
	<path style="fill:#E1E4F9;" d="M166.607,350.456c0.046,5.055-4.783-5.977,75.841,153.322c5.54,10.946,21.192,10.978,26.749,0   c79.734-157.54,75.532-147.784,75.605-152.771C294.489,398.299,216.529,397.961,166.607,350.456z"/>
	<path style="fill:#D6DAF6;" d="M344.803,351.008c-25.041,23.537-56.93,35.272-88.803,35.269v125.717   c5.239-0.059,10.451-2.79,13.197-8.216C348.931,346.239,344.729,355.994,344.803,351.008z"/>
	<path style="fill:#FEB655;" d="M256,391.292c-74.439,0-135-60.76-135-135.445v-47.004c0-8.312,6.716-15.049,15-15.049h240   c8.284,0,15,6.738,15,15.049v47.004C391,330.531,330.439,391.292,256,391.292z"/>
	<path style="fill:#FD9A2B;" d="M376,193.793H256v197.499c74.439,0,135-60.76,135-135.445v-47.004   C391,200.531,384.284,193.793,376,193.793z"/>
</g>















</svg>
